<svg id="Layer_1" data-name="Layer 1" xmlns="http://www.w3.org/2000/svg" viewBox="0 0 80 80"><defs><style>.cls-1{fill:#fbfadf;}.cls-2{fill:#030202;}.cls-3{fill:#fac49c;}.cls-4{fill:#070604;}.cls-5{fill:#060504;}</style></defs><circle class="cls-1" cx="40" cy="40" r="38.52"/><path class="cls-2" d="M29.41,21.83h.64a2.16,2.16,0,0,1,1.5,1.24c.07.15.19.05.28,0a2,2,0,0,1,2.28,1.18c.08.18.17.2.34.17a1.92,1.92,0,0,1,2.16,1,.32.32,0,0,0,.33.19c.75,0,1.49,0,2.23,0a4.62,4.62,0,0,0,1.54-.06c.43-.17.74-.66,1.1-1a6.74,6.74,0,0,1,3.11-1.87c.92-.24,1.86-.38,2.79-.59a3.3,3.3,0,0,0,1.11-.28h.85c0,.07.09.06.15.07a2,2,0,0,1,1.49,2.31,4.71,4.71,0,0,1-.37.94h3.89a2,2,0,0,1,2,2.45c0,.19,0,.25.16.33a1.92,1.92,0,0,1,1.11,1.76A1.89,1.89,0,0,1,57,31.47a.31.31,0,0,0-.2.4,1.9,1.9,0,0,1-1.14,2.22c-.22.1-.23.2-.19.4a1.92,1.92,0,0,1-1,2.09.4.4,0,0,0-.24.44c0,.76,0,1.53,0,2.3a4.06,4.06,0,0,0,.06,1.4c.15.39.6.67.93,1A6.88,6.88,0,0,1,57,44.33a25.73,25.73,0,0,1,1,4.93,2,2,0,0,1-2.32,2.06,4.48,4.48,0,0,1-1-.39c0,1.33,0,2.62,0,3.9a2,2,0,0,1-2.44,2c-.19,0-.25,0-.34.16a2,2,0,0,1-3.53,0,.31.31,0,0,0-.4-.2,1.9,1.9,0,0,1-2.22-1.14c-.1-.21-.2-.23-.4-.19a1.92,1.92,0,0,1-2.09-1,.42.42,0,0,0-.44-.24,20.11,20.11,0,0,1-2.33,0,2.45,2.45,0,0,0-2.35,1A5.86,5.86,0,0,1,35.57,57a25.74,25.74,0,0,1-4.9,1,2,2,0,0,1-2.06-2.32,4.48,4.48,0,0,1,.39-1h-.22c-1.28,0-2.57,0-3.86,0a1.91,1.91,0,0,1-1.85-2c.05-.47,0-.72-.45-.94s-.58-.7-.79-1.12v-.92c.12,0,.1-.15.13-.23a1.94,1.94,0,0,1,1-1.07c.2-.09.2-.19.17-.37a1.93,1.93,0,0,1,1.16-2.25c.19-.08.21-.16.18-.34a1.94,1.94,0,0,1,1-2.16.33.33,0,0,0,.19-.33c0-.77,0-1.54,0-2.3a4.46,4.46,0,0,0-.05-1.47c-.18-.42-.66-.73-1-1.07a7.16,7.16,0,0,1-2-3.65c-.16-.76-.28-1.53-.45-2.28a3.3,3.3,0,0,0-.28-1.11v-.92c.09,0,.07-.11.09-.18a2,2,0,0,1,2.39-1.38,4.78,4.78,0,0,1,.84.37c0-1.28,0-2.51,0-3.75a2,2,0,0,1,2.51-2.13c.1,0,.18.06.23-.07A2.14,2.14,0,0,1,29.41,21.83Zm20.3,13.6H53.4c.45,0,.73-.24.72-.6s-.28-.54-.73-.54H51a.74.74,0,0,1-.69-.72.71.71,0,0,1,.75-.69h3.54c.55,0,.85-.21.84-.6s-.29-.56-.82-.56h-3a5.46,5.46,0,0,1-.7,0,.68.68,0,0,1,0-1.35,2.38,2.38,0,0,1,.46,0h4.46l.36,0a.52.52,0,0,0,.5-.54.54.54,0,0,0-.44-.57,1.67,1.67,0,0,0-.39,0H51.17c-.44,0-.7-.16-.8-.5-.15-.5.2-.91.81-.91h3.54c.47,0,.74-.21.74-.56s-.27-.57-.74-.58H48.53a1.46,1.46,0,0,1-.63-.09.85.85,0,0,1-.51-.79.8.8,0,0,1,.5-.82,13.61,13.61,0,0,1,1.46-.4c.44-.13.65-.4.56-.75s-.39-.52-.83-.43l-2.39.46a7.14,7.14,0,0,0-3.06,1.13A17.47,17.47,0,0,0,41.7,26.7a1.2,1.2,0,0,1-.91.38c-1.19,0-2.38,0-3.58,0-.27,0-.37,0-.37.35q0,2.46,0,4.92c0,.3.1.34.36.34.88,0,1.77,0,2.65,0,1.75,0,1.26-.2,2.48,1a5.72,5.72,0,0,0,4.23,1.73ZM30.2,44.5H26.52c-.44,0-.71.23-.71.58s.27.56.71.56h2.23a.78.78,0,0,1,.79.43.7.7,0,0,1-.71,1h-3.5a1.75,1.75,0,0,0-.46,0,.56.56,0,0,0-.33.8.66.66,0,0,0,.66.32h3.47a1,1,0,0,1,.52.08.66.66,0,0,1,.39.71.67.67,0,0,1-.7.62c-.54,0-1.08,0-1.63,0H23.89a.58.58,0,0,0-.64.57.61.61,0,0,0,.64.58h4.88c.49,0,.79.24.82.65s-.3.76-.85.76H25.2c-.46,0-.72.2-.73.54s.26.6.72.6h6.34c.63,0,1,.35,1,.89a.86.86,0,0,1-.71.89c-.4.12-.82.2-1.23.31s-.67.39-.59.74.39.53.86.45l2.39-.47A7.79,7.79,0,0,0,36,55.26a13.73,13.73,0,0,0,2.22-2,1.24,1.24,0,0,1,.94-.39h3.62c.23,0,.32,0,.32-.3,0-1.67,0-3.35,0-5,0-.24-.08-.28-.3-.28H40.06c-1.72,0-1.25.19-2.45-1a5.73,5.73,0,0,0-4.22-1.74Zm5.23-14.3V28.4c0-.65,0-1.3,0-1.95a.6.6,0,0,0-.58-.64.58.58,0,0,0-.56.64c0,.28,0,.57,0,.85,0,.51,0,1,0,1.52a.74.74,0,0,1-.74.78.73.73,0,0,1-.67-.8c0-.25,0-.5,0-.75V25.19c0-.55-.4-.86-.81-.67a.64.64,0,0,0-.36.68c0,1.15,0,2.31,0,3.47a1,1,0,0,1-.07.52.66.66,0,0,1-.71.39.62.62,0,0,1-.6-.63c0-.59,0-1.18,0-1.77,0-1.09,0-2.19,0-3.29a.58.58,0,0,0-.56-.64.62.62,0,0,0-.59.64v.35c0,1.51,0,3,0,4.53,0,.51-.3.84-.72.83s-.69-.34-.69-.86c0-1.18,0-2.36,0-3.54,0-.47-.22-.74-.58-.73s-.56.27-.56.71v2.94c0,1.14,0,2.27,0,3.4,0,.66-.38,1.05-1,1a.86.86,0,0,1-.82-.71c-.12-.42-.21-.86-.33-1.3a.61.61,0,0,0-.71-.52.63.63,0,0,0-.47.82l.48,2.43A7.47,7.47,0,0,0,24.71,36a13.73,13.73,0,0,0,1.95,2.15,1.28,1.28,0,0,1,.42,1c0,1.2,0,2.4,0,3.61,0,.23.06.29.29.29.73,0,1.47,0,2.2,0,.23,0,.29-.07.29-.3,0-.49,0-1,0-1.48s.29-.81.71-.81.7.31.71.8c0,.23,0,.45,0,.68s-.16.85.07,1,.7,0,1.06.07.29-.08.29-.3q0-1.36,0-2.73c0-1.72-.19-1.25,1-2.45a5.7,5.7,0,0,0,1.75-4.22ZM44.5,49.73v3.68c0,.44.23.71.58.71s.56-.27.56-.71c0-.7,0-1.4,0-2.09a1.69,1.69,0,0,1,0-.32.73.73,0,0,1,.73-.67.7.7,0,0,1,.67.73c0,1.2,0,2.39,0,3.58a1.14,1.14,0,0,0,.06.45.55.55,0,0,0,.55.37.53.53,0,0,0,.51-.38,1.93,1.93,0,0,0,0-.42c0-1.13,0-2.26,0-3.4a1,1,0,0,1,.08-.52.65.65,0,0,1,.68-.4.66.66,0,0,1,.63.57,5.46,5.46,0,0,1,0,1c0,1.38,0,2.76,0,4.14a.58.58,0,0,0,.56.64A.62.62,0,0,0,50.8,56v-.28c0-1.54,0-3.07,0-4.6,0-.61.46-1,1-.77a.76.76,0,0,1,.45.8c0,1.18,0,2.36,0,3.54,0,.45.2.72.54.73s.6-.26.6-.72V51c0-.88,0-1.75,0-2.62,0-.68.39-1.06,1-1a.86.86,0,0,1,.78.71c.12.43.21.86.33,1.3a.61.61,0,0,0,.71.52.62.62,0,0,0,.46-.82c-.18-.94-.37-1.87-.54-2.81a6.21,6.21,0,0,0-1.62-3.35c-.41-.41-.81-.83-1.23-1.22a1.17,1.17,0,0,1-.4-.94c0-.93,0-1.87,0-2.8,0-.36.14-.87-.05-1.06s-.73,0-1.12-.08-.29.08-.29.3c0,.65,0,1.3,0,2a.64.64,0,0,1-.59.6.69.69,0,0,1-.74-.44,1.54,1.54,0,0,1-.06-.48c0-.56,0-1.11,0-1.67,0-.2,0-.26-.25-.26-.73,0-1.47,0-2.2,0-.25,0-.28.09-.28.3q0,1.36,0,2.73c0,1.71.19,1.25-1,2.45a5.73,5.73,0,0,0-1.74,4.22ZM38.79,34.09H37.12c-.24,0-.32.07-.34.31a6.09,6.09,0,0,1-.41,1.67A7.62,7.62,0,0,1,34.3,39a.59.59,0,0,0-.21.52c0,1.08,0,2.17,0,3.25,0,.27.07.37.34.39a5.92,5.92,0,0,1,1.61.39,7.49,7.49,0,0,1,2.87,2,.85.85,0,0,0,.7.31c1.07,0,2.13,0,3.19,0,.27,0,.34-.1.36-.34a6,6,0,0,1,.4-1.64,7.66,7.66,0,0,1,2.09-2.94.6.6,0,0,0,.2-.49c0-1.1,0-2.19,0-3.29,0-.26-.07-.34-.33-.37a6.94,6.94,0,0,1-3.64-1.57c-.46-.36-.73-1-1.33-1.1A10.32,10.32,0,0,0,38.79,34.09Z"/><path class="cls-3" d="M49.71,35.43H46.56a5.72,5.72,0,0,1-4.23-1.73c-1.22-1.22-.73-1-2.48-1-.88,0-1.77,0-2.65,0-.26,0-.36,0-.36-.34q0-2.46,0-4.92c0-.31.1-.36.37-.35,1.2,0,2.39,0,3.58,0a1.2,1.2,0,0,0,.91-.38,17.47,17.47,0,0,1,1.93-1.82,7.14,7.14,0,0,1,3.06-1.13l2.39-.46c.44-.09.74.07.83.43s-.12.62-.56.75a13.61,13.61,0,0,0-1.46.4.8.8,0,0,0-.5.82.85.85,0,0,0,.51.79,1.46,1.46,0,0,0,.63.09h6.19c.47,0,.74.22.74.58s-.27.56-.74.56H51.18c-.61,0-1,.41-.81.91.1.34.36.5.8.5h4.67a1.67,1.67,0,0,1,.39,0,.54.54,0,0,1,.44.57.52.52,0,0,1-.5.54l-.36,0H51.35a2.38,2.38,0,0,0-.46,0,.68.68,0,0,0,0,1.35,5.46,5.46,0,0,0,.7,0h3c.53,0,.82.19.82.56s-.29.6-.84.6H51.08a.71.71,0,0,0-.75.69.74.74,0,0,0,.69.72h2.37c.45,0,.72.2.73.54s-.27.6-.72.6Z"/><path class="cls-3" d="M30.2,44.5h3.19a5.73,5.73,0,0,1,4.22,1.74c1.2,1.2.73,1,2.45,1h2.73c.22,0,.3,0,.3.28,0,1.68,0,3.36,0,5,0,.27-.09.3-.32.3H39.15a1.24,1.24,0,0,0-.94.39,13.73,13.73,0,0,1-2.22,2,7.79,7.79,0,0,1-2.73.91l-2.39.47c-.47.08-.78-.08-.86-.45s.14-.62.59-.74.83-.19,1.23-.31a.86.86,0,0,0,.71-.89c0-.54-.38-.88-1-.89H25.19c-.46,0-.74-.24-.72-.6s.27-.54.73-.54h3.54c.55,0,.89-.32.85-.76s-.33-.65-.82-.65H23.89a.61.61,0,0,1-.64-.58.58.58,0,0,1,.64-.57h3.36c.55,0,1.09,0,1.63,0a.67.67,0,0,0,.7-.62.66.66,0,0,0-.39-.71,1,1,0,0,0-.52-.08H25.2a.66.66,0,0,1-.66-.32.56.56,0,0,1,.33-.8,1.75,1.75,0,0,1,.46,0h3.5a.7.7,0,0,0,.71-1,.78.78,0,0,0-.79-.43H26.52c-.44,0-.71-.21-.71-.56s.27-.58.71-.58Z"/><path class="cls-3" d="M35.43,30.2v3.19a5.7,5.7,0,0,1-1.75,4.22c-1.19,1.2-1,.73-1,2.45q0,1.36,0,2.73c0,.22,0,.31-.29.3s-.84.11-1.06-.07,0-.68-.07-1,0-.45,0-.68c0-.49-.28-.8-.71-.8s-.7.31-.71.81,0,1,0,1.48c0,.23-.06.3-.29.3-.73,0-1.47,0-2.2,0-.23,0-.29-.06-.29-.29,0-1.21,0-2.41,0-3.61a1.28,1.28,0,0,0-.42-1A13.73,13.73,0,0,1,24.71,36a7.47,7.47,0,0,1-.95-2.78l-.48-2.43a.63.63,0,0,1,.47-.82.61.61,0,0,1,.71.52c.12.44.21.88.33,1.3a.86.86,0,0,0,.82.71c.58,0,.95-.36,1-1,0-1.13,0-2.26,0-3.4V25.18c0-.44.21-.7.56-.71s.58.26.58.73c0,1.18,0,2.36,0,3.54,0,.52.27.84.69.86s.72-.32.72-.83c0-1.51,0-3,0-4.53v-.35a.62.62,0,0,1,.59-.64.58.58,0,0,1,.56.64c0,1.1,0,2.2,0,3.29,0,.59,0,1.18,0,1.77a.62.62,0,0,0,.6.63.66.66,0,0,0,.71-.39,1,1,0,0,0,.07-.52c0-1.16,0-2.32,0-3.47a.64.64,0,0,1,.36-.68c.41-.19.8.12.81.67v2.86c0,.25,0,.5,0,.75a.73.73,0,0,0,.67.8.74.74,0,0,0,.74-.78c0-.51,0-1,0-1.52,0-.28,0-.57,0-.85a.58.58,0,0,1,.56-.64.6.6,0,0,1,.58.64c0,.65,0,1.3,0,1.95Zm-4.88,7.64a.71.71,0,0,0-.7.69.74.74,0,0,0,.69.71.71.71,0,0,0,.71-.72A.69.69,0,0,0,30.55,37.84Z"/><path class="cls-3" d="M44.5,49.73V46.54a5.73,5.73,0,0,1,1.74-4.22c1.2-1.2,1-.74,1-2.45q0-1.36,0-2.73c0-.21,0-.3.28-.3.73,0,1.47,0,2.2,0,.2,0,.26.06.25.26,0,.56,0,1.11,0,1.67a1.54,1.54,0,0,0,.06.48.69.69,0,0,0,.74.44.64.64,0,0,0,.59-.6c0-.65,0-1.3,0-2,0-.22,0-.32.29-.3s.89-.15,1.12.08.05.7.05,1.06c0,.93,0,1.87,0,2.8a1.17,1.17,0,0,0,.4.94c.42.39.82.81,1.23,1.22a6.21,6.21,0,0,1,1.62,3.35c.17.94.36,1.87.54,2.81a.62.62,0,0,1-.46.82.61.61,0,0,1-.71-.52c-.12-.44-.21-.87-.33-1.3a.86.86,0,0,0-.78-.71c-.61,0-1,.34-1,1,0,.87,0,1.74,0,2.62v3.71c0,.46-.24.74-.6.72s-.54-.28-.54-.73c0-1.18,0-2.36,0-3.54a.76.76,0,0,0-.45-.8c-.5-.21-1,.16-1,.77,0,1.53,0,3.06,0,4.6V56a.62.62,0,0,1-.59.64.58.58,0,0,1-.56-.64c0-1.38,0-2.76,0-4.14a5.46,5.46,0,0,0,0-1,.66.66,0,0,0-.63-.57.65.65,0,0,0-.68.4,1,1,0,0,0-.08.52c0,1.14,0,2.27,0,3.4a1.93,1.93,0,0,1,0,.42.53.53,0,0,1-.51.38.55.55,0,0,1-.55-.37,1.14,1.14,0,0,1-.06-.45c0-1.19,0-2.38,0-3.58a.7.7,0,0,0-.67-.73.73.73,0,0,0-.73.67,1.69,1.69,0,0,0,0,.32c0,.69,0,1.39,0,2.09,0,.44-.21.71-.56.71s-.58-.27-.58-.71Zm6.89-8.08a.71.71,0,0,0-.7-.69.71.71,0,1,0,.7.69Z"/><path class="cls-4" d="M30.55,37.84a.69.69,0,0,1,.7.68.71.71,0,0,1-.71.72.74.74,0,0,1-.69-.71A.71.71,0,0,1,30.55,37.84Z"/><path class="cls-5" d="M51.39,41.65a.7.7,0,1,1-.7-.69A.71.71,0,0,1,51.39,41.65Z"/></svg>